<svg width="50" height="50" viewBox="0 0 50 50" fill="none" xmlns="http://www.w3.org/2000/svg">
<g clip-path="url(#clip0_3222_9418)">
<path fill-rule="evenodd" clip-rule="evenodd" d="M0.99992 30.048C0.999658 30.0346 0.999527 30.0212 0.999527 30.0077V6.16434C0.999527 5.11939 1.12072 4.49189 1.47156 3.83595C1.71357 3.38349 2.04228 2.99497 2.4414 2.68668C1.54739 3.64042 0.99992 4.92295 0.99992 6.33334V30.048Z" fill="#808080"/>
<path fill-rule="evenodd" clip-rule="evenodd" d="M5.27862 2C4.32658 2 3.88033 2.10846 3.42149 2.35382C2.96344 2.59875 2.59875 2.96341 2.3538 3.42136C2.10844 3.88009 1.99998 4.32623 1.99998 5.27811V29.0077C1.99998 29.7868 2.94235 30.1775 3.49374 29.6262L3.50068 29.6192L9.92487 23.3207H15.8789V25.3207H10.7418L4.90402 31.0443C3.0925 32.8494 -2.28882e-05 31.5672 -2.28882e-05 29.0077V5.27811C-2.28882e-05 4.14009 0.1339 3.33122 0.590225 2.47807C1.0216 1.67156 1.67181 1.02144 2.47838 0.59014C3.33159 0.133899 4.14051 0 5.27862 0H26.7214C27.8595 0 28.6684 0.133899 29.5216 0.59014C30.3282 1.02144 30.9784 1.67156 31.4098 2.47807C31.8661 3.33122 32 4.1401 32 5.27811V16H30V5.27811C30 4.32623 29.8915 3.88009 29.6462 3.42136C29.4012 2.96341 29.0365 2.59875 28.5785 2.35382C28.1197 2.10846 27.6734 2 26.7214 2H5.27862ZM24 7C24.5523 7 25 7.44772 25 8C25 8.55228 24.5523 9 24 9H8C7.44772 9 7 8.55228 7 8C7 7.44772 7.44772 7 8 7H24ZM24 12C24.5523 12 25 12.4477 25 13C25 13.5523 24.5523 14 24 14H8C7.44772 14 7 13.5523 7 13C7 12.4477 7.44772 12 8 12H24ZM15.5 18C15.5 17.4477 15.0523 17 14.5 17H8C7.44772 17 7 17.4477 7 18C7 18.5523 7.44772 19 8 19H14.5C15.0523 19 15.5 18.5523 15.5 18Z" fill="#808080"/>
<path fill-rule="evenodd" clip-rule="evenodd" d="M46.5785 20.24C46.1196 19.9947 45.6734 19.8862 44.7214 19.8862H23.2786C22.3266 19.8862 21.8804 19.9947 21.4215 20.24C20.9635 20.485 20.5988 20.8496 20.3538 21.3076C20.1085 21.7663 20 22.2125 20 23.1643V38.0427C20 38.9946 20.1085 39.4407 20.3538 39.8994C20.5988 40.3574 20.9635 40.722 21.4215 40.967C21.8804 41.2123 22.3266 41.3208 23.2786 41.3208H40.0751L46.4993 47.6193L46.5062 47.6262C47.0576 48.1775 48 47.7868 48 47.0077V23.1643C48 22.2125 47.8915 21.7663 47.6462 21.3076C47.4012 20.8496 47.0365 20.485 46.5785 20.24ZM44.7214 17.8862C45.8595 17.8862 46.6684 18.0201 47.5216 18.4764C48.3282 18.9077 48.9784 19.5578 49.4098 20.3643C49.8661 21.2174 50 22.0263 50 23.1643V47.0077C50 49.5673 46.9075 50.8495 45.096 49.0444L39.2582 43.3208H23.2786C22.1405 43.3208 21.3316 43.1869 20.4784 42.7307C19.6718 42.2994 19.0216 41.6492 18.5902 40.8427C18.1339 39.9896 18 39.1807 18 38.0427V23.1643C18 22.0263 18.1339 21.2174 18.5902 20.3643C19.0216 19.5578 19.6718 18.9077 20.4784 18.4764C21.3316 18.0201 22.1405 17.8862 23.2786 17.8862H44.7214ZM27.4999 33.5C27.1307 33.0893 27.1643 32.457 27.575 32.0878C27.9858 31.7186 28.618 31.7522 28.9873 32.1629C31.6663 35.1432 36.4124 35.0857 39.0856 32.0631C39.4515 31.6494 40.0835 31.6107 40.4972 31.9766C40.9109 32.3425 40.9496 32.9744 40.5838 33.3881C37.1372 37.285 30.9963 37.3895 27.4999 33.5ZM38.5 28.5C37.5335 28.5 36.75 27.7165 36.75 26.75C36.75 25.7835 37.5335 25 38.5 25C39.4665 25 40.25 25.7835 40.25 26.75C40.25 27.7165 39.4665 28.5 38.5 28.5ZM27.75 26.75C27.75 27.7165 28.5335 28.5 29.5 28.5C30.4665 28.5 31.25 27.7165 31.25 26.75C31.25 25.7835 30.4665 25 29.5 25C28.5335 25 27.75 25.7835 27.75 26.75Z" fill="#808080"/>
</g>
<defs>
<clipPath id="clip0_3222_9418">
<rect width="50" height="50" fill="white" transform="matrix(-1 0 0 1 50 0)"/>
</clipPath>
</defs>
</svg>
