<?xml version="1.0" standalone="no"?>
<!DOCTYPE svg PUBLIC "-//W3C//DTD SVG 20010904//EN"
 "http://www.w3.org/TR/2001/REC-SVG-20010904/DTD/svg10.dtd">
<svg version="1.0" xmlns="http://www.w3.org/2000/svg"
 width="360.000000pt" height="360.000000pt" viewBox="0 0 360.000000 360.000000"
 preserveAspectRatio="xMidYMid meet">

<g transform="translate(0.000000,360.000000) scale(0.100000,-0.100000)"
fill="#fff" stroke="none">
<path d="M1630 3479 c-432 -41 -860 -271 -1135 -609 -632 -777 -459 -1922 375
-2478 375 -249 860 -338 1300 -238 498 114 910 437 1138 891 280 560 228 1220
-136 1735 -86 122 -270 306 -392 392 -338 239 -740 347 -1150 307z m411 -123
c411 -67 771 -284 1019 -614 205 -273 312 -595 312 -937 0 -153 -13 -263 -49
-400 -160 -616 -673 -1072 -1308 -1165 -103 -16 -327 -16 -430 0 -354 52 -678
218 -920 472 -229 241 -368 520 -421 847 -18 111 -18 371 0 482 56 346 219
657 468 894 237 226 516 366 838 420 104 18 385 18 491 1z"/>
<path d="M1680 3033 c-591 -63 -1045 -516 -1111 -1107 -30 -277 50 -594 207
-818 l34 -48 -21 -35 c-17 -28 -21 -47 -17 -94 16 -224 348 -211 348 14 0 99
-74 174 -171 175 -46 0 -47 1 -87 63 -85 129 -139 263 -167 410 -19 103 -19
311 0 414 77 404 378 742 770 866 126 40 217 50 382 44 160 -5 241 -21 378
-76 82 -33 103 -31 126 10 25 48 -52 95 -236 144 -144 39 -302 52 -435 38z
m-690 -2043 c11 -11 20 -31 20 -45 0 -14 -9 -34 -20 -45 -11 -11 -31 -20 -45
-20 -14 0 -34 9 -45 20 -11 11 -20 31 -20 45 0 14 9 34 20 45 11 11 31 20 45
20 14 0 34 -9 45 -20z"/>
<path d="M2532 2813 c-56 -27 -86 -76 -90 -147 -4 -75 23 -129 83 -164 33 -19
51 -22 103 -19 l64 3 40 -59 c61 -89 126 -235 155 -344 32 -122 42 -324 23
-452 -52 -354 -281 -669 -605 -833 -163 -83 -319 -120 -505 -120 -171 0 -314
31 -488 107 -51 23 -67 26 -86 17 -27 -12 -36 -39 -25 -70 15 -39 198 -113
369 -149 117 -24 353 -24 470 1 502 107 868 475 976 981 26 122 23 360 -6 490
-38 172 -100 315 -197 452 -36 52 -42 66 -33 82 18 34 12 113 -13 156 -43 76
-154 108 -235 68z m128 -113 c11 -11 20 -31 20 -45 0 -14 -9 -34 -20 -45 -11
-11 -31 -20 -45 -20 -14 0 -34 9 -45 20 -11 11 -20 31 -20 45 0 14 9 34 20 45
11 11 31 20 45 20 14 0 34 -9 45 -20z"/>
<path d="M1587 2403 c-15 -18 -17 -51 -17 -341 l0 -322 -93 0 c-101 0 -117 -7
-117 -50 0 -47 27 -60 123 -60 l87 0 0 -85 0 -85 -93 0 c-101 0 -117 -7 -117
-51 0 -48 22 -59 121 -59 l89 0 0 -99 c0 -108 7 -123 57 -124 42 0 53 26 53
130 l0 93 189 0 c185 0 190 1 205 22 21 29 20 51 -2 71 -16 15 -46 17 -205 17
l-187 0 0 85 0 85 163 0 c103 0 180 5 212 14 154 41 258 151 291 306 13 66 14
82 0 148 -27 133 -100 225 -226 286 l-65 31 -225 3 c-211 3 -227 2 -243 -15z
m495 -126 c212 -104 212 -400 0 -504 -55 -27 -64 -28 -229 -31 l-173 -4 0 287
0 287 173 -4 c165 -3 174 -4 229 -31z"/>
</g>
</svg>
