<?xml version="1.0" standalone="no"?>
<!DOCTYPE svg PUBLIC "-//W3C//DTD SVG 20010904//EN"
 "http://www.w3.org/TR/2001/REC-SVG-20010904/DTD/svg10.dtd">
<svg version="1.0" xmlns="http://www.w3.org/2000/svg"
 width="900.000000pt" height="512.000000pt" viewBox="0 0 900.000000 512.000000"
 preserveAspectRatio="xMidYMid meet">

<g transform="translate(0.000000,512.000000) scale(0.100000,-0.100000)"
fill="#fff" stroke="none">
<path d="M3625 4791 c-90 -22 -172 -90 -215 -176 l-25 -50 -3 -922 -2 -921
-203 -4 c-190 -3 -205 -5 -252 -28 -62 -30 -125 -94 -156 -157 -34 -69 -33
-196 1 -268 31 -64 91 -124 155 -155 47 -23 62 -25 253 -28 l202 -4 0 -158 0
-158 -202 -4 c-191 -3 -206 -5 -253 -28 -64 -31 -124 -91 -155 -155 -20 -41
-24 -65 -24 -135 0 -70 4 -94 24 -135 31 -64 91 -124 155 -155 47 -23 62 -25
252 -28 l202 -4 3 -281 3 -282 27 -51 c40 -76 70 -107 140 -145 58 -31 70 -34
148 -34 77 1 91 4 148 34 73 39 105 74 141 151 l26 55 3 758 2 757 525 1 c289
1 528 2 533 3 4 1 39 6 77 10 224 25 482 132 650 269 292 238 450 610 454
1067 4 497 -203 936 -547 1157 -173 111 -363 176 -597 203 -102 11 -1442 12
-1490 1z m1544 -654 c306 -82 457 -332 447 -742 -3 -109 -9 -171 -24 -226 -60
-224 -185 -354 -402 -420 -73 -23 -87 -23 -622 -27 l-548 -3 0 721 0 721 543
-4 c469 -3 551 -6 606 -20z"/>
<path d="M4400 1744 c-141 -51 -229 -183 -218 -327 10 -114 80 -216 185 -268
l48 -24 485 0 485 0 63 34 c73 40 105 74 141 151 37 79 37 193 -1 266 -40 76
-70 107 -140 145 l-63 34 -470 2 c-409 2 -476 0 -515 -13z"/>
</g>
</svg>
